<svg id="slogan" width="840" height="80" viewBox="0 0 840 80" fill="none" xmlns="http://www.w3.org/2000/svg">
        <path d="M26.392 5.39201V38.352C26.392 42.0213 25.2613 44.9653 23 47.184C20.7387 49.36 17.752 50.448 14.04 50.448C10.2853 50.448 7.27733 49.3387 5.01599 47.12C2.75466 44.8587 1.62399 41.7867 1.62399 37.904H7.44799C7.49066 40.08 8.04533 41.8507 9.11199 43.216C10.2213 44.5813 11.864 45.264 14.04 45.264C16.216 45.264 17.8373 44.624 18.904 43.344C19.9707 42.0213 20.504 40.3573 20.504 38.352V5.39201H26.392Z" stroke="white" stroke-width="2"/>
        <path d="M68.9695 14.928V50H63.1455V44.816C62.0362 46.608 60.4788 48.016 58.4735 49.04C56.5108 50.0213 54.3348 50.512 51.9455 50.512C49.2148 50.512 46.7615 49.9573 44.5855 48.848C42.4095 47.696 40.6815 45.9893 39.4015 43.728C38.1642 41.4667 37.5455 38.7147 37.5455 35.472V14.928H43.3055V34.704C43.3055 38.16 44.1802 40.8267 45.9295 42.704C47.6788 44.5387 50.0682 45.456 53.0975 45.456C56.2122 45.456 58.6655 44.496 60.4575 42.576C62.2495 40.656 63.1455 37.8613 63.1455 34.192V14.928H68.9695Z" stroke="white" stroke-width="2"/>
        <path d="M95.891 14.288C100.158 14.288 103.614 15.5893 106.259 18.192C108.904 20.752 110.227 24.464 110.227 29.328V50H104.467V30.16C104.467 26.6613 103.592 23.9947 101.843 22.16C100.094 20.2827 97.7043 19.344 94.675 19.344C91.603 19.344 89.1497 20.304 87.315 22.224C85.523 24.144 84.627 26.9387 84.627 30.608V50H78.803V14.928H84.627V19.92C85.779 18.128 87.3363 16.7413 89.299 15.76C91.3043 14.7787 93.5017 14.288 95.891 14.288Z" stroke="white" stroke-width="2"/>
        <path d="M122.748 9.23201C121.639 9.23201 120.7 8.84801 119.932 8.08001C119.164 7.31201 118.78 6.37334 118.78 5.264C118.78 4.15467 119.164 3.21601 119.932 2.44801C120.7 1.68001 121.639 1.29601 122.748 1.29601C123.815 1.29601 124.711 1.68001 125.436 2.44801C126.204 3.21601 126.588 4.15467 126.588 5.264C126.588 6.37334 126.204 7.31201 125.436 8.08001C124.711 8.84801 123.815 9.23201 122.748 9.23201ZM125.564 14.928V50H119.74V14.928H125.564Z" stroke="white" stroke-width="2"/>
        <path d="M150.786 50.576C147.501 50.576 144.515 49.8293 141.827 48.336C139.181 46.8427 137.091 44.7307 135.555 42C134.061 39.2267 133.314 36.0267 133.314 32.4C133.314 28.816 134.082 25.6587 135.618 22.928C137.197 20.1547 139.33 18.0427 142.018 16.592C144.706 15.0987 147.714 14.352 151.042 14.352C154.37 14.352 157.378 15.0987 160.066 16.592C162.754 18.0427 164.866 20.1333 166.402 22.864C167.981 25.5947 168.771 28.7733 168.771 32.4C168.771 36.0267 167.96 39.2267 166.339 42C164.76 44.7307 162.605 46.8427 159.874 48.336C157.144 49.8293 154.114 50.576 150.786 50.576ZM150.786 45.456C152.877 45.456 154.84 44.9653 156.674 43.984C158.509 43.0027 159.981 41.5307 161.09 39.568C162.242 37.6053 162.818 35.216 162.818 32.4C162.818 29.584 162.264 27.1947 161.154 25.232C160.045 23.2693 158.595 21.8187 156.803 20.88C155.011 19.8987 153.069 19.408 150.979 19.408C148.845 19.408 146.883 19.8987 145.09 20.88C143.341 21.8187 141.933 23.2693 140.867 25.232C139.8 27.1947 139.266 29.584 139.266 32.4C139.266 35.2587 139.779 37.6693 140.803 39.632C141.869 41.5947 143.277 43.0667 145.027 44.048C146.776 44.9867 148.696 45.456 150.786 45.456Z" stroke="white" stroke-width="2"/>
        <path d="M182.252 20.624C183.276 18.6187 184.727 17.0613 186.604 15.952C188.524 14.8427 190.849 14.288 193.58 14.288V20.304H192.044C185.516 20.304 182.252 23.8453 182.252 30.928V50H176.428V14.928H182.252V20.624Z" stroke="white" stroke-width="2"/>
        <path d="M231.51 50.448C228.566 50.448 225.92 49.936 223.574 48.912C221.27 47.8453 219.456 46.3947 218.133 44.56C216.811 42.6827 216.128 40.528 216.085 38.096H222.294C222.507 40.1867 223.36 41.9573 224.854 43.408C226.39 44.816 228.608 45.52 231.51 45.52C234.283 45.52 236.459 44.8373 238.038 43.472C239.659 42.064 240.469 40.272 240.469 38.096C240.469 36.3893 240 35.0027 239.061 33.936C238.123 32.8693 236.95 32.0587 235.542 31.504C234.134 30.9493 232.235 30.352 229.846 29.712C226.902 28.944 224.534 28.176 222.742 27.408C220.992 26.64 219.477 25.4453 218.197 23.824C216.96 22.16 216.342 19.9413 216.342 17.168C216.342 14.736 216.96 12.5813 218.197 10.704C219.435 8.82667 221.163 7.376 223.382 6.35201C225.643 5.32801 228.224 4.81601 231.126 4.81601C235.307 4.81601 238.72 5.86134 241.366 7.95201C244.054 10.0427 245.568 12.816 245.91 16.272H239.51C239.296 14.5653 238.4 13.072 236.822 11.792C235.243 10.4693 233.152 9.80801 230.549 9.80801C228.117 9.80801 226.134 10.448 224.598 11.728C223.062 12.9653 222.294 14.7147 222.294 16.976C222.294 18.5973 222.741 19.92 223.637 20.944C224.576 21.968 225.707 22.7573 227.029 23.312C228.395 23.824 230.293 24.4213 232.725 25.104C235.669 25.9147 238.037 26.7253 239.829 27.536C241.621 28.304 243.158 29.52 244.438 31.184C245.718 32.8053 246.357 35.024 246.357 37.84C246.357 40.016 245.782 42.064 244.63 43.984C243.478 45.904 241.771 47.4613 239.51 48.656C237.248 49.8507 234.582 50.448 231.51 50.448Z" stroke="white" stroke-width="2"/>
        <path d="M270.224 50.576C266.939 50.576 263.952 49.8293 261.264 48.336C258.619 46.8427 256.528 44.7307 254.992 42C253.499 39.2267 252.752 36.0267 252.752 32.4C252.752 28.816 253.52 25.6587 255.056 22.928C256.635 20.1547 258.768 18.0427 261.456 16.592C264.144 15.0987 267.152 14.352 270.48 14.352C273.808 14.352 276.816 15.0987 279.504 16.592C282.192 18.0427 284.304 20.1333 285.84 22.864C287.419 25.5947 288.208 28.7733 288.208 32.4C288.208 36.0267 287.397 39.2267 285.776 42C284.197 44.7307 282.043 46.8427 279.312 48.336C276.581 49.8293 273.552 50.576 270.224 50.576ZM270.224 45.456C272.315 45.456 274.277 44.9653 276.112 43.984C277.947 43.0027 279.419 41.5307 280.528 39.568C281.68 37.6053 282.256 35.216 282.256 32.4C282.256 29.584 281.701 27.1947 280.592 25.232C279.483 23.2693 278.032 21.8187 276.24 20.88C274.448 19.8987 272.507 19.408 270.416 19.408C268.283 19.408 266.32 19.8987 264.528 20.88C262.779 21.8187 261.371 23.2693 260.304 25.232C259.237 27.1947 258.704 29.584 258.704 32.4C258.704 35.2587 259.216 37.6693 260.24 39.632C261.307 41.5947 262.715 43.0667 264.464 44.048C266.213 44.9867 268.133 45.456 270.224 45.456Z" stroke="white" stroke-width="2"/>
        <path d="M310.138 19.728H302.777V50H296.953V19.728H292.409V14.928H296.953V12.432C296.953 8.50667 297.956 5.64801 299.961 3.85601C302.009 2.02134 305.274 1.104 309.754 1.104V5.96801C307.194 5.96801 305.38 6.48001 304.314 7.50401C303.29 8.48534 302.777 10.128 302.777 12.432V14.928H310.138V19.728Z" stroke="white" stroke-width="2"/>
        <path d="M324.032 19.728V40.4C324.032 42.1067 324.395 43.3227 325.12 44.048C325.845 44.7307 327.104 45.072 328.896 45.072H333.184V50H327.936C324.693 50 322.261 49.2533 320.64 47.76C319.019 46.2667 318.208 43.8133 318.208 40.4V19.728H313.664V14.928H318.208V6.096H324.032V14.928H333.184V19.728H324.032Z" stroke="white" stroke-width="2"/>
        <path d="M386.961 14.928L376.017 50H370L361.552 22.16L353.104 50H347.089L336.081 14.928H342.033L350.096 44.368L358.801 14.928H364.753L373.264 44.432L381.201 14.928H386.961Z" stroke="white" stroke-width="2"/>
        <path d="M390.565 32.336C390.565 28.752 391.29 25.616 392.741 22.928C394.191 20.1973 396.175 18.0853 398.693 16.592C401.253 15.0987 404.09 14.352 407.204 14.352C410.276 14.352 412.943 15.0133 415.204 16.336C417.466 17.6587 419.151 19.3227 420.26 21.328V14.928H426.148V50H420.26V43.472C419.108 45.52 417.381 47.2267 415.077 48.592C412.815 49.9147 410.17 50.576 407.141 50.576C404.026 50.576 401.21 49.808 398.693 48.272C396.175 46.736 394.191 44.5813 392.741 41.808C391.29 39.0347 390.565 35.8773 390.565 32.336ZM420.26 32.4C420.26 29.7547 419.727 27.4507 418.66 25.488C417.594 23.5253 416.143 22.032 414.309 21.008C412.517 19.9413 410.533 19.408 408.357 19.408C406.181 19.408 404.197 19.92 402.405 20.944C400.613 21.968 399.183 23.4613 398.117 25.424C397.05 27.3867 396.517 29.6907 396.517 32.336C396.517 35.024 397.05 37.3707 398.117 39.376C399.183 41.3387 400.613 42.8533 402.405 43.92C404.197 44.944 406.181 45.456 408.357 45.456C410.533 45.456 412.517 44.944 414.309 43.92C416.143 42.8533 417.594 41.3387 418.66 39.376C419.727 37.3707 420.26 35.0453 420.26 32.4Z" stroke="white" stroke-width="2"/>
        <path d="M441.815 20.624C442.839 18.6187 444.289 17.0613 446.167 15.952C448.087 14.8427 450.412 14.288 453.143 14.288V20.304H451.607C445.079 20.304 441.815 23.8453 441.815 30.928V50H435.991V14.928H441.815V20.624Z" stroke="white" stroke-width="2"/>
        <path d="M491.866 31.12C491.866 32.2293 491.801 33.4027 491.673 34.64H463.642C463.855 38.096 465.028 40.8053 467.161 42.768C469.337 44.688 471.962 45.648 475.034 45.648C477.551 45.648 479.642 45.072 481.306 43.92C483.012 42.7253 484.207 41.1467 484.889 39.184H491.161C490.223 42.5547 488.346 45.3067 485.53 47.44C482.714 49.5307 479.215 50.576 475.034 50.576C471.706 50.576 468.719 49.8293 466.073 48.336C463.471 46.8427 461.423 44.7307 459.93 42C458.436 39.2267 457.69 36.0267 457.69 32.4C457.69 28.7733 458.415 25.5947 459.866 22.864C461.316 20.1333 463.343 18.0427 465.945 16.592C468.591 15.0987 471.62 14.352 475.034 14.352C478.362 14.352 481.306 15.0773 483.866 16.528C486.426 17.9787 488.388 19.984 489.754 22.544C491.162 25.0613 491.866 27.92 491.866 31.12ZM485.849 29.904C485.849 27.6853 485.359 25.7867 484.378 24.208C483.396 22.5867 482.052 21.3707 480.345 20.56C478.681 19.7067 476.825 19.28 474.777 19.28C471.833 19.28 469.316 20.2187 467.225 22.096C465.177 23.9733 464.004 26.576 463.706 29.904H485.849Z" stroke="white" stroke-width="2"/>
        <path d="M530.503 5.39201C535.367 5.39201 539.57 6.30934 543.111 8.144C546.695 9.936 549.426 12.5173 551.303 15.888C553.223 19.2587 554.183 23.2267 554.183 27.792C554.183 32.3573 553.223 36.3253 551.303 39.696C549.426 43.024 546.695 45.584 543.111 47.376C539.57 49.1253 535.367 50 530.503 50H516.615V5.39201H530.503ZM530.503 45.2C536.263 45.2 540.658 43.6853 543.687 40.656C546.717 37.584 548.231 33.296 548.231 27.792C548.231 22.2453 546.695 17.9147 543.623 14.8C540.594 11.6853 536.221 10.128 530.503 10.128H522.439V45.2H530.503Z" stroke="white" stroke-width="2"/>
        <path d="M593.865 31.12C593.865 32.2293 593.801 33.4027 593.673 34.64H565.641C565.855 38.096 567.028 40.8053 569.161 42.768C571.337 44.688 573.961 45.648 577.033 45.648C579.551 45.648 581.641 45.072 583.305 43.92C585.012 42.7253 586.207 41.1467 586.889 39.184H593.161C592.223 42.5547 590.345 45.3067 587.529 47.44C584.713 49.5307 581.215 50.576 577.033 50.576C573.705 50.576 570.719 49.8293 568.073 48.336C565.471 46.8427 563.423 44.7307 561.929 42C560.436 39.2267 559.689 36.0267 559.689 32.4C559.689 28.7733 560.415 25.5947 561.865 22.864C563.316 20.1333 565.343 18.0427 567.945 16.592C570.591 15.0987 573.62 14.352 577.033 14.352C580.361 14.352 583.305 15.0773 585.865 16.528C588.425 17.9787 590.388 19.984 591.753 22.544C593.161 25.0613 593.865 27.92 593.865 31.12ZM587.849 29.904C587.849 27.6853 587.359 25.7867 586.377 24.208C585.396 22.5867 584.052 21.3707 582.345 20.56C580.681 19.7067 578.825 19.28 576.777 19.28C573.833 19.28 571.316 20.2187 569.225 22.096C567.177 23.9733 566.004 26.576 565.705 29.904H587.849Z" stroke="white" stroke-width="2"/>
        <path d="M614.609 44.624L625.489 14.928H631.697L617.937 50H611.153L597.393 14.928H603.665L614.609 44.624Z" stroke="white" stroke-width="2"/>
        <path d="M669.428 31.12C669.428 32.2293 669.364 33.4027 669.236 34.64H641.204C641.417 38.096 642.591 40.8053 644.724 42.768C646.9 44.688 649.524 45.648 652.596 45.648C655.113 45.648 657.204 45.072 658.868 43.92C660.575 42.7253 661.769 41.1467 662.452 39.184H668.724C667.785 42.5547 665.908 45.3067 663.092 47.44C660.276 49.5307 656.777 50.576 652.596 50.576C649.268 50.576 646.281 49.8293 643.636 48.336C641.033 46.8427 638.985 44.7307 637.492 42C635.999 39.2267 635.252 36.0267 635.252 32.4C635.252 28.7733 635.977 25.5947 637.428 22.864C638.879 20.1333 640.905 18.0427 643.508 16.592C646.153 15.0987 649.183 14.352 652.596 14.352C655.924 14.352 658.868 15.0773 661.428 16.528C663.988 17.9787 665.951 19.984 667.316 22.544C668.724 25.0613 669.428 27.92 669.428 31.12ZM663.412 29.904C663.412 27.6853 662.921 25.7867 661.94 24.208C660.959 22.5867 659.615 21.3707 657.908 20.56C656.244 19.7067 654.388 19.28 652.34 19.28C649.396 19.28 646.879 20.2187 644.788 22.096C642.74 23.9733 641.567 26.576 641.268 29.904H663.412Z" stroke="white" stroke-width="2"/>
        <path d="M682.939 2.64001V50H677.115V2.64001H682.939Z" stroke="white" stroke-width="2"/>
        <path d="M708.161 50.576C704.876 50.576 701.889 49.8293 699.201 48.336C696.556 46.8427 694.465 44.7307 692.929 42C691.436 39.2267 690.689 36.0267 690.689 32.4C690.689 28.816 691.457 25.6587 692.993 22.928C694.572 20.1547 696.705 18.0427 699.393 16.592C702.081 15.0987 705.089 14.352 708.417 14.352C711.745 14.352 714.753 15.0987 717.441 16.592C720.129 18.0427 722.241 20.1333 723.777 22.864C725.356 25.5947 726.145 28.7733 726.145 32.4C726.145 36.0267 725.335 39.2267 723.713 42C722.135 44.7307 719.98 46.8427 717.249 48.336C714.519 49.8293 711.489 50.576 708.161 50.576ZM708.161 45.456C710.252 45.456 712.215 44.9653 714.049 43.984C715.884 43.0027 717.356 41.5307 718.465 39.568C719.617 37.6053 720.193 35.216 720.193 32.4C720.193 29.584 719.639 27.1947 718.529 25.232C717.42 23.2693 715.969 21.8187 714.177 20.88C712.385 19.8987 710.444 19.408 708.353 19.408C706.22 19.408 704.257 19.8987 702.465 20.88C700.716 21.8187 699.308 23.2693 698.241 25.232C697.175 27.1947 696.641 29.584 696.641 32.4C696.641 35.2587 697.153 37.6693 698.177 39.632C699.244 41.5947 700.652 43.0667 702.401 44.048C704.151 44.9867 706.071 45.456 708.161 45.456Z" stroke="white" stroke-width="2"/>
        <path d="M739.627 21.392C740.779 19.3867 742.486 17.7227 744.747 16.4C747.051 15.0347 749.718 14.352 752.747 14.352C755.862 14.352 758.678 15.0987 761.195 16.592C763.755 18.0853 765.76 20.1973 767.211 22.928C768.662 25.616 769.387 28.752 769.387 32.336C769.387 35.8773 768.662 39.0347 767.211 41.808C765.76 44.5813 763.755 46.736 761.195 48.272C758.678 49.808 755.862 50.576 752.747 50.576C749.76 50.576 747.115 49.9147 744.811 48.592C742.55 47.2267 740.822 45.5413 739.627 43.536V66.64H733.803V14.928H739.627V21.392ZM763.435 32.336C763.435 29.6907 762.902 27.3867 761.835 25.424C760.768 23.4613 759.318 21.968 757.483 20.944C755.691 19.92 753.707 19.408 751.531 19.408C749.398 19.408 747.414 19.9413 745.579 21.008C743.787 22.032 742.336 23.5467 741.227 25.552C740.16 27.5147 739.627 29.7973 739.627 32.4C739.627 35.0453 740.16 37.3707 741.227 39.376C742.336 41.3387 743.787 42.8533 745.579 43.92C747.414 44.944 749.398 45.456 751.531 45.456C753.707 45.456 755.691 44.944 757.483 43.92C759.318 42.8533 760.768 41.3387 761.835 39.376C762.902 37.3707 763.435 35.024 763.435 32.336Z" stroke="white" stroke-width="2"/>
        <path d="M809.053 31.12C809.053 32.2293 808.989 33.4027 808.861 34.64H780.829C781.042 38.096 782.216 40.8053 784.349 42.768C786.525 44.688 789.149 45.648 792.221 45.648C794.738 45.648 796.829 45.072 798.493 43.92C800.2 42.7253 801.394 41.1467 802.077 39.184H808.349C807.41 42.5547 805.533 45.3067 802.717 47.44C799.901 49.5307 796.402 50.576 792.221 50.576C788.893 50.576 785.906 49.8293 783.261 48.336C780.658 46.8427 778.61 44.7307 777.117 42C775.624 39.2267 774.877 36.0267 774.877 32.4C774.877 28.7733 775.602 25.5947 777.053 22.864C778.504 20.1333 780.53 18.0427 783.133 16.592C785.778 15.0987 788.808 14.352 792.221 14.352C795.549 14.352 798.493 15.0773 801.053 16.528C803.613 17.9787 805.576 19.984 806.941 22.544C808.349 25.0613 809.053 27.92 809.053 31.12ZM803.037 29.904C803.037 27.6853 802.546 25.7867 801.565 24.208C800.584 22.5867 799.24 21.3707 797.533 20.56C795.869 19.7067 794.013 19.28 791.965 19.28C789.021 19.28 786.504 20.2187 784.413 22.096C782.365 23.9733 781.192 26.576 780.893 29.904H803.037Z" stroke="white" stroke-width="2"/>
        <path d="M822.564 20.624C823.588 18.6187 825.039 17.0613 826.916 15.952C828.836 14.8427 831.162 14.288 833.892 14.288V20.304H832.356C825.828 20.304 822.564 23.8453 822.564 30.928V50H816.74V14.928H822.564V20.624Z" stroke="white" stroke-width="2"/>
    </svg>