<svg id="logo" width="640" height="220" viewBox="0 0 640 220" fill="none" xmlns="http://www.w3.org/2000/svg">
        <path d="M104.156 187.688V185.188H101.656H33.884V8.264V5.764H31.384H5.17599H2.67599V8.264V209V211.5H5.17599H101.656H104.156V209V187.688ZM144.465 211.5H146.219L146.816 209.849L162.347 166.86H246.39L261.921 209.849L262.518 211.5H264.272H291.921H295.485L294.271 208.149L221.983 8.56464L221.386 6.916H219.633H189.392H187.641L187.043 8.56164L114.467 208.146L113.247 211.5H116.816H144.465ZM427.087 210.258L427.81 211.5H429.247H460.639H465.052L462.783 207.715L414.14 126.55C428.867 122.763 440.214 115.753 447.947 105.385C456.352 94.3735 460.547 81.6472 460.547 67.304C460.547 55.5796 457.86 45.054 452.427 35.7985C446.961 26.4862 438.694 19.1666 427.765 13.8001C416.961 8.40004 403.788 5.764 388.351 5.764H323.551H321.051V8.264V209V211.5H323.551H349.759H352.259V209V129.42H380.002L427.087 210.258ZM418.602 41.4735L418.615 41.4853L418.627 41.4968C425.1 47.4442 428.475 55.9238 428.475 67.304C428.475 78.4648 425.113 87.1922 418.563 93.7482C412.095 100.033 402.182 103.396 388.351 103.396H352.259V32.364H388.351C402.433 32.364 412.344 35.5632 418.602 41.4735ZM525.655 206.373L525.681 206.384L525.706 206.395C536.625 211.16 548.877 213.516 562.418 213.516C576.567 213.516 588.984 210.763 599.585 205.162C610.107 199.604 618.151 192.299 623.601 183.214C629.012 174.198 631.734 164.539 631.734 154.28C631.734 141.255 628.775 130.664 622.566 122.791C616.573 115.005 609.338 109.26 600.865 105.624C592.641 101.906 581.857 98.2213 568.559 94.5593C557.672 91.5032 549.223 88.8435 543.181 86.5801C537.579 84.2242 532.814 80.8918 528.857 76.5807C525.309 72.5153 523.446 67.1927 523.446 60.392C523.446 50.8478 526.65 43.7432 532.882 38.7229L532.898 38.7098L532.914 38.6965C539.285 33.3872 547.607 30.636 558.098 30.636C569.381 30.636 578.171 33.4961 584.716 38.9803L584.732 38.9932L584.747 39.0059C591.447 44.4383 595.071 50.609 595.937 57.5341L596.211 59.724H598.418H627.218H629.977L629.706 56.9783C628.104 40.7618 620.956 27.653 608.311 17.8153C595.869 7.9863 579.925 3.172 560.69 3.172C547.338 3.172 535.361 5.52918 524.81 10.3066L524.802 10.3103L524.794 10.3141C514.425 15.0998 506.273 21.9215 500.426 30.7922C494.567 39.6821 491.662 49.8647 491.662 61.256C491.662 74.0937 494.526 84.6557 500.508 92.6998L500.529 92.7288L500.552 92.7571C506.544 100.348 513.68 105.991 521.957 109.625L521.967 109.63L521.977 109.634C530.199 113.158 540.984 116.649 554.29 120.121C564.997 122.989 573.436 125.648 579.645 128.094C585.637 130.454 590.58 133.881 594.525 138.364C598.27 142.619 600.238 148.232 600.238 155.432C600.238 164.511 596.895 171.882 590.155 177.736C583.636 183.372 574.495 186.34 562.418 186.34C549.758 186.34 540.477 183.274 534.181 177.517C527.904 171.408 524.332 163.995 523.433 155.178L523.204 152.932H520.946H493.01H490.466L490.51 155.476C490.71 166.889 493.924 177.078 500.182 185.96L500.19 185.971L500.198 185.982C506.431 194.627 514.946 201.415 525.655 206.373ZM171.631 140.548L204.368 49.0901L237.106 140.548H171.631Z" stroke="white" stroke-width="5"/>
    </svg>